<?xml version="1.0" encoding="UTF-8" standalone="no"?>
<svg
   xmlns:dc="http://purl.org/dc/elements/1.1/"
   xmlns:cc="http://creativecommons.org/ns#"
   xmlns:rdf="http://www.w3.org/1999/02/22-rdf-syntax-ns#"
   xmlns:svg="http://www.w3.org/2000/svg"
   xmlns="http://www.w3.org/2000/svg"
   xmlns:xlink="http://www.w3.org/1999/xlink"
   xmlns:sodipodi="http://sodipodi.sourceforge.net/DTD/sodipodi-0.dtd"
   xmlns:inkscape="http://www.inkscape.org/namespaces/inkscape"
   version="1.1"
   width="566.92902"
   height="493.56799"
   viewBox="0 116.129 566.929 493.568"
   id="TCPSlowStartundCongestionAvoidance"
   xml:space="preserve"
   inkscape:version="0.48.3.1 r9886"
   sodipodi:docname="tcp_slow_start_request.svg"><metadata
   id="metadata128"><rdf:RDF><cc:Work
       rdf:about=""><dc:format>image/svg+xml</dc:format><dc:type
         rdf:resource="http://purl.org/dc/dcmitype/StillImage" /></cc:Work></rdf:RDF></metadata><sodipodi:namedview
   pagecolor="#ffffff"
   bordercolor="#666666"
   borderopacity="1"
   objecttolerance="10"
   gridtolerance="10"
   guidetolerance="10"
   inkscape:pageopacity="0"
   inkscape:pageshadow="2"
   inkscape:window-width="1450"
   inkscape:window-height="969"
   id="namedview126"
   showgrid="false"
   inkscape:zoom="1.665424"
   inkscape:cx="283.46451"
   inkscape:cy="246.784"
   inkscape:window-x="65"
   inkscape:window-y="24"
   inkscape:window-maximized="0"
   inkscape:current-layer="TCPSlowStartundCongestionAvoidance" /><defs
   id="defs157"><linearGradient
     id="linearGradient5311"><stop
       style="stop-color:#000000;stop-opacity:1;"
       offset="0"
       id="stop5313" /><stop
       style="stop-color:#000000;stop-opacity:0;"
       offset="1"
       id="stop5315" /></linearGradient><linearGradient
     inkscape:collect="always"
     xlink:href="#rect294_1_"
     id="linearGradient5319"
     x1="62.747902"
     y1="384.58676"
     x2="166.62312"
     y2="384.58676"
     gradientUnits="userSpaceOnUse"
     gradientTransform="matrix(0.84440699,0,0,0.89857256,9.9965119,159.43021)" /></defs>
<filter
   color-interpolation-filters="sRGB"
   id="filter3928">
	<feGaussianBlur
   stdDeviation="2.0691875"
   id="feGaussianBlur3930" />
</filter>
<linearGradient
   x1="262.37109"
   y1="1140.4939"
   x2="262.37091"
   y2="724.07013"
   id="rect10_1_"
   gradientUnits="userSpaceOnUse"
   gradientTransform="translate(41.51333,-589.66985)">
	<stop
   id="stop6"
   style="stop-color:#ebac4e;stop-opacity:1"
   offset="0" />
	<stop
   id="stop8"
   style="stop-color:#ffe6a6;stop-opacity:1"
   offset="1" />
</linearGradient>
<rect
   width="492.29199"
   height="416.42401"
   x="57.738232"
   y="134.40054"
   id="rect10"
   style="fill:url(#rect10_1_)" />
<g
   transform="translate(13.284451,71.013475)"
   id="g40">
	<polygon
   points="536.683,480.31 41.297,480.31 41.297,480.31 41.297,479.311 536.683,479.311 "
   id="polygon17"
   style="fill:#ffffff" />
	<polygon
   points="536.683,461.379 41.297,461.379 41.297,461.379 41.297,460.379 536.683,460.379 "
   id="polygon19"
   style="fill:#ffffff" />
	<polygon
   points="536.683,442.449 41.297,442.449 41.297,442.449 41.297,441.449 536.683,441.449 "
   id="polygon21"
   style="fill:#ffffff" />
	<polygon
   points="536.683,423.521 41.297,423.521 41.297,423.521 41.297,422.522 536.683,422.522 "
   id="polygon23"
   style="fill:#ffffff" />
	<polygon
   points="536.683,404.595 41.297,404.595 41.297,404.595 41.297,403.593 536.683,403.593 "
   id="polygon25"
   style="fill:#ffffff" />
	<polygon
   points="536.683,385.665 41.297,385.665 41.297,385.665 41.297,384.665 536.683,384.665 "
   id="polygon27"
   style="fill:#ffffff" />
	<polygon
   points="536.683,366.737 41.297,366.737 41.297,366.737 41.297,365.736 536.683,365.736 "
   id="polygon29"
   style="fill:#ffffff" />
	<polygon
   points="536.683,347.811 41.297,347.811 41.297,347.811 41.297,346.811 536.683,346.811 "
   id="polygon31"
   style="fill:#ffffff" />
	<polygon
   points="536.683,328.881 41.297,328.881 41.297,328.881 41.297,327.882 536.683,327.882 "
   id="polygon33"
   style="fill:#ffffff" />
	<polygon
   points="536.683,309.953 41.297,309.953 41.297,309.953 41.297,308.952 536.683,308.952 "
   id="polygon35"
   style="fill:#ffffff" />
	<polygon
   points="536.683,291.023 41.297,291.023 41.297,291.023 41.297,290.024 536.683,290.024 "
   id="polygon37"
   style="fill:#ffffff" />
	<polygon
   points="536.683,272.097 41.297,272.097 41.297,272.097 41.297,271.098 536.683,271.098 "
   id="polygon39"
   style="fill:#ffffff" />
	<polygon
   points="536.683,253.167 41.297,253.167 41.297,253.167 41.297,252.168 536.683,252.168 "
   id="polygon41"
   style="fill:#ffffff" />
	<polygon
   points="536.683,234.239 41.297,234.239 41.297,234.239 41.297,233.24 536.683,233.24 "
   id="polygon43"
   style="fill:#ffffff" />
	<polygon
   points="536.683,215.312 41.297,215.312 41.297,215.312 41.297,214.312 536.683,214.312 "
   id="polygon45"
   style="fill:#ffffff" />
	<polygon
   points="536.683,196.385 41.297,196.385 41.297,196.385 41.297,195.384 536.683,195.384 "
   id="polygon47"
   style="fill:#ffffff" />
	<polygon
   points="536.683,177.456 41.297,177.456 41.297,177.456 41.297,176.457 536.683,176.457 "
   id="polygon49"
   style="fill:#ffffff" />
	<polygon
   points="536.683,158.528 41.297,158.528 41.297,158.528 41.297,157.527 536.683,157.527 "
   id="polygon51"
   style="fill:#ffffff" />
	<polygon
   points="536.683,139.599 41.297,139.599 41.297,139.599 41.297,138.6 536.683,138.6 "
   id="polygon53"
   style="fill:#ffffff" />
	<polygon
   points="536.683,120.672 41.297,120.672 41.297,120.672 41.297,119.67 536.683,119.67 "
   id="polygon55"
   style="fill:#ffffff" />
	<polygon
   points="536.683,101.744 41.297,101.744 41.297,101.744 41.297,100.743 536.683,100.743 "
   id="polygon57"
   style="fill:#ffffff" />
	<polygon
   points="536.683,82.815 41.297,82.815 41.297,82.815 41.297,81.815 536.683,81.815 "
   id="polygon59"
   style="fill:#ffffff" />
	<polygon
   points="536.683,63.885 41.297,63.885 41.297,63.885 41.297,62.886 536.683,62.886 "
   id="polygon61"
   style="fill:#ffffff" />
</g>
<g
   transform="translate(13.284451,71.013475)"
   id="g94">
<g
   id="g96">
<line
   id="line98"
   stroke-miterlimit="1"
   x1="68.521004"
   y1="63.387001"
   x2="68.521004"
   y2="490.88"
   style="fill:none;stroke:#ffffff;stroke-width:0.75;stroke-miterlimit:1;stroke-dasharray:1.518" />
<line
   id="line100"
   stroke-miterlimit="1"
   x1="96.056999"
   y1="63.387001"
   x2="96.056999"
   y2="490.88"
   style="fill:none;stroke:#ffffff;stroke-width:0.75;stroke-miterlimit:1;stroke-dasharray:1.518" />
<line
   id="line102"
   stroke-miterlimit="1"
   x1="123.593"
   y1="63.387001"
   x2="123.593"
   y2="490.88"
   style="fill:none;stroke:#ffffff;stroke-width:0.75;stroke-miterlimit:1;stroke-dasharray:1.518" />
<line
   id="line104"
   stroke-miterlimit="1"
   x1="151.12801"
   y1="63.387001"
   x2="151.12801"
   y2="490.88"
   style="fill:none;stroke:#ffffff;stroke-width:0.75;stroke-miterlimit:1;stroke-dasharray:1.518" />
<line
   id="line106"
   stroke-miterlimit="1"
   x1="178.664"
   y1="63.387001"
   x2="178.664"
   y2="490.88"
   style="fill:none;stroke:#ffffff;stroke-width:0.75;stroke-miterlimit:1;stroke-dasharray:1.518" />
<line
   id="line108"
   stroke-miterlimit="1"
   x1="206.19901"
   y1="63.387001"
   x2="206.19901"
   y2="490.88"
   style="fill:none;stroke:#ffffff;stroke-width:0.75;stroke-miterlimit:1;stroke-dasharray:1.518" />
<line
   id="line110"
   stroke-miterlimit="1"
   x1="233.735"
   y1="63.387001"
   x2="233.735"
   y2="490.88"
   style="fill:none;stroke:#ffffff;stroke-width:0.75;stroke-miterlimit:1;stroke-dasharray:1.518" />
<line
   id="line112"
   stroke-miterlimit="1"
   x1="261.271"
   y1="63.387001"
   x2="261.271"
   y2="490.88"
   style="fill:none;stroke:#ffffff;stroke-width:0.75;stroke-miterlimit:1;stroke-dasharray:1.518" />
<line
   id="line114"
   stroke-miterlimit="1"
   x1="288.806"
   y1="63.387001"
   x2="288.806"
   y2="490.88"
   style="fill:none;stroke:#ffffff;stroke-width:0.75;stroke-miterlimit:1;stroke-dasharray:1.518" />
<line
   id="line116"
   stroke-miterlimit="1"
   x1="316.34399"
   y1="63.387001"
   x2="316.34399"
   y2="490.88"
   style="fill:none;stroke:#ffffff;stroke-width:0.75;stroke-miterlimit:1;stroke-dasharray:1.518" />
<line
   id="line118"
   stroke-miterlimit="1"
   x1="343.879"
   y1="63.387001"
   x2="343.879"
   y2="490.88"
   style="fill:none;stroke:#ffffff;stroke-width:0.75;stroke-miterlimit:1;stroke-dasharray:1.518" />
<line
   id="line120"
   stroke-miterlimit="1"
   x1="371.414"
   y1="63.387001"
   x2="371.414"
   y2="490.88"
   style="fill:none;stroke:#ffffff;stroke-width:0.75;stroke-miterlimit:1;stroke-dasharray:1.518" />
<line
   id="line122"
   stroke-miterlimit="1"
   x1="398.94901"
   y1="63.387001"
   x2="398.94901"
   y2="490.88"
   style="fill:none;stroke:#ffffff;stroke-width:0.75;stroke-miterlimit:1;stroke-dasharray:1.518" />
<line
   id="line124"
   stroke-miterlimit="1"
   x1="426.48401"
   y1="63.387001"
   x2="426.48401"
   y2="490.88"
   style="fill:none;stroke:#ffffff;stroke-width:0.75;stroke-miterlimit:1;stroke-dasharray:1.518" />
<line
   id="line126"
   stroke-miterlimit="1"
   x1="454.021"
   y1="63.387001"
   x2="454.021"
   y2="490.88"
   style="fill:none;stroke:#ffffff;stroke-width:0.75;stroke-miterlimit:1;stroke-dasharray:1.518" />
<line
   id="line128"
   stroke-miterlimit="1"
   x1="481.55801"
   y1="63.387001"
   x2="481.55801"
   y2="490.88"
   style="fill:none;stroke:#ffffff;stroke-width:0.75;stroke-miterlimit:1;stroke-dasharray:1.518" />
<line
   id="line130"
   stroke-miterlimit="1"
   x1="509.09399"
   y1="63.387001"
   x2="509.09399"
   y2="490.88"
   style="fill:none;stroke:#ffffff;stroke-width:0.75;stroke-miterlimit:1;stroke-dasharray:1.518" />
	</g>
</g>
<text
   x="-416.35638"
   y="26.444138"
   transform="matrix(-4.371139e-8,-1,1,-4.371139e-8,0,0)"
   id="text60"
   style="font-size:12px;font-family:'Nimbus Sans L, Sans-Serif'">Congestion window size </text>




<text
   x="34.552742"
   y="460.04184"
   id="text152"
   style="font-size:12px;font-family:'Nimbus Sans L, Sans-Serif'">15</text>




<text
   x="35.077732"
   y="365.29575"
   id="text154"
   style="font-size:12px;font-family:'Nimbus Sans L, Sans-Serif'">30</text>




<text
   x="35.077732"
   y="270.54965"
   id="text156"
   style="font-size:12px;font-family:'Nimbus Sans L, Sans-Serif'">45</text>




<text
   x="35.077732"
   y="175.80356"
   id="text158"
   style="font-size:12px;font-family:'Nimbus Sans L, Sans-Serif'">60</text>




<text
   x="291.70224"
   y="594.30646"
   id="text178"
   style="font-size:12px;font-family:'Nimbus Sans L, Sans-Serif'">Time</text>




<text
   x="54.559731"
   y="575.98517"
   id="text148"
   style="font-size:12px;font-family:Nimbus Sans L, Sans-Serif;">0</text>




<text
   x="77.980629"
   y="575.98517"
   id="text150"
   style="font-size:12px;font-family:Nimbus Sans L, Sans-Serif;">1</text>




<text
   x="105.51623"
   y="575.98517"
   id="text162"
   style="font-size:12px;font-family:Nimbus Sans L, Sans-Serif;">2</text>




<text
   x="133.05193"
   y="575.98517"
   id="text164"
   style="font-size:12px;font-family:Nimbus Sans L, Sans-Serif;">3</text>




<text
   x="160.58803"
   y="575.98517"
   id="text166"
   style="font-size:12px;font-family:Nimbus Sans L, Sans-Serif;">4</text>




<text
   x="188.12363"
   y="575.98517"
   id="text168"
   style="font-size:12px;font-family:Nimbus Sans L, Sans-Serif;">5</text>




<text
   x="215.65933"
   y="575.98517"
   id="text170"
   style="font-size:12px;font-family:Nimbus Sans L, Sans-Serif;">6</text>




<text
   x="243.19493"
   y="575.98517"
   id="text172"
   style="font-size:12px;font-family:Nimbus Sans L, Sans-Serif;">7</text>




<text
   x="270.73062"
   y="575.98517"
   id="text174"
   style="font-size:12px;font-family:Nimbus Sans L, Sans-Serif;">8</text>




<text
   x="298.26672"
   y="575.98517"
   id="text176"
   style="font-size:12px;font-family:Nimbus Sans L, Sans-Serif;">9</text>




<text
   x="322.72473"
   y="575.98517"
   id="text226"
   style="font-size:12px;font-family:Nimbus Sans L, Sans-Serif;">10</text>




<text
   x="350.25992"
   y="575.98517"
   id="text71"
   style="font-size:12px;font-family:Nimbus Sans L, Sans-Serif;">11</text>




<text
   x="377.79504"
   y="575.98517"
   id="text230"
   style="font-size:12px;font-family:Nimbus Sans L, Sans-Serif;">12</text>




<text
   x="405.33212"
   y="575.98517"
   id="text232"
   style="font-size:12px;font-family:Nimbus Sans L, Sans-Serif;">13</text>




<text
   x="432.86734"
   y="575.98517"
   id="text234"
   style="font-size:12px;font-family:Nimbus Sans L, Sans-Serif;">14</text>




<text
   x="460.40244"
   y="575.98517"
   id="text236"
   style="font-size:12px;font-family:Nimbus Sans L, Sans-Serif;">15</text>




<text
   x="487.93863"
   y="575.98517"
   id="text238"
   style="font-size:12px;font-family:Nimbus Sans L, Sans-Serif;">16</text>




<text
   x="515.47473"
   y="575.98517"
   id="text240"
   style="font-size:12px;font-family:Nimbus Sans L, Sans-Serif;">17</text>




<text
   x="543.00995"
   y="575.98517"
   id="text242"
   style="font-size:12px;font-family:Nimbus Sans L, Sans-Serif;">18</text>




<text
   x="379.82263"
   y="354.94653"
   id="text186"
   style="font-size:12px;font-family:'Nimbus Sans L, Sans-Serif'">Threshold</text>




<text
   x="126.85369"
   y="243.13165"
   id="text206"
   style="font-size:12px;font-family:'Nimbus Sans L, Sans-Serif'">Threshold</text>




<text
   x="29.635773"
   y="302.47104"
   transform="matrix(0.82586118,-0.56387349,0.56387349,0.82586118,0,0)"
   id="text84"
   style="font-size:12.0017643px;font-family:Nimbus Sans L, Sans-Serif;">Congestion Avoidance</text>




<text
   x="309.23453"
   y="167.77916"
   id="text92"
   style="font-size:12px;font-family:Nimbus Sans L, Sans-Serif;">Timeout</text>




<text
   x="-311.23563"
   y="223.50354"
   transform="matrix(0.18080354,-0.98351923,0.98351923,0.18080354,0,0)"
   id="text266"
   style="font-size:11.9997654px;font-family:Nimbus Sans L, Sans-Serif;">Slow Start</text>




<linearGradient
   x1="43.9062"
   y1="744.69122"
   x2="236.7319"
   y2="744.69122"
   id="rect287_1_"
   gradientUnits="userSpaceOnUse"
   gradientTransform="translate(13.83513,-572.42765)">
<stop
   id="stop98"
   style="stop-color:#000000;stop-opacity:1"
   offset="0" />
<stop
   id="stop100"
   style="stop-color:#ffffff;stop-opacity:1"
   offset="1" />
</linearGradient>
<rect
   width="192.826"
   height="1"
   x="57.74123"
   y="171.76355"
   id="rect287"
   style="fill:url(#rect287_1_)" />
<linearGradient
   x1="43.9062"
   y1="839.33472"
   x2="236.7319"
   y2="839.33472"
   id="rect294_1_"
   gradientUnits="userSpaceOnUse"
   gradientTransform="translate(13.83513,-572.42765)">
<stop
   id="stop104"
   style="stop-color:#7f0078;stop-opacity:1;"
   offset="0" />
<stop
   id="stop106"
   style="stop-color:#ffffff;stop-opacity:1"
   offset="1" />
</linearGradient>
<rect
   width="192.826"
   height="1"
   x="57.74123"
   y="266.40656"
   id="rect294"
   style="fill:url(#rect294_1_)" />
<linearGradient
   x1="43.9062"
   y1="933.97729"
   x2="236.7319"
   y2="933.97729"
   id="rect301_1_"
   gradientUnits="userSpaceOnUse"
   gradientTransform="translate(13.83513,-572.42765)">
<stop
   id="stop110"
   style="stop-color:#000000;stop-opacity:1"
   offset="0" />
<stop
   id="stop112"
   style="stop-color:#ffffff;stop-opacity:1"
   offset="1" />
</linearGradient>
<rect
   width="192.826"
   height="1"
   x="57.74123"
   y="361.04956"
   id="rect301"
   style="fill:url(#rect301_1_)" />
<linearGradient
   x1="43.9062"
   y1="1028.6199"
   x2="236.7319"
   y2="1028.6199"
   id="rect308_1_"
   gradientUnits="userSpaceOnUse"
   gradientTransform="translate(13.83513,-572.42765)">
<stop
   id="stop116"
   style="stop-color:#000000;stop-opacity:1"
   offset="0" />
<stop
   id="stop118"
   style="stop-color:#ffffff;stop-opacity:1"
   offset="1" />
</linearGradient>
<rect
   width="192.826"
   height="1"
   x="57.74123"
   y="455.69254"
   id="rect308"
   style="fill:url(#rect308_1_)" />
<g
   transform="translate(4.0582304,53.771553)"
   id="Graph-Schatten"
   style="opacity:0.5;filter:url(#filter3928)">
<polyline
   points="79.737,480.182    107.238,461.182 134.988,423.306 162.364,347.556 189.865,196.18 217.614,177.18 244.99,158.304 272.741,139.429 300.117,120.679    327.744,480.182 355.181,461.177 382.646,423.367 410.226,347.636 437.806,309.828 465.273,290.866 492.966,272.02 520.562,253.16    547.91,234.054  "
   id="polyline122"
   style="fill:none;stroke:#000000;stroke-width:3;stroke-linecap:round;stroke-linejoin:round" />
</g>
<polyline
   id="Graph"
   points="  77.737,478.182 105.238,459.182 132.988,421.306 160.364,345.556 187.865,194.18 215.614,175.18 242.99,156.304 270.741,137.429   298.117,118.679 325.744,478.182 353.181,459.177 380.646,421.367 408.226,345.636 435.806,307.828 463.273,288.866 490.966,270.02   518.562,251.16 545.91,232.054 "
   transform="translate(4.0582304,53.771553)"
   style="fill:none;stroke:#ff4900;stroke-width:3;stroke-linecap:round;stroke-linejoin:round" />
<circle
   cx="77.792"
   cy="477.99301"
   r="2.691"
   transform="translate(4.0582304,53.771553)"
   id="circle312_14_"
   style="fill:#ff4900;stroke:#ff4900;stroke-width:2.80310011;stroke-linecap:round;stroke-linejoin:round" />
<circle
   cx="105.309"
   cy="459.29501"
   r="2.691"
   transform="translate(4.0582304,53.771553)"
   id="circle312_5_"
   style="fill:#ff4900;stroke:#ff4900;stroke-width:2.80310011;stroke-linecap:round;stroke-linejoin:round" />
<circle
   cx="132.78999"
   cy="421.45901"
   r="2.691"
   transform="translate(4.0582304,53.771553)"
   id="circle312_3_"
   style="fill:#ff4900;stroke:#ff4900;stroke-width:2.80310011;stroke-linecap:round;stroke-linejoin:round" />
<circle
   cx="160.395"
   cy="345.53601"
   r="2.691"
   transform="translate(4.0582304,53.771553)"
   id="circle312_2_"
   style="fill:#ff4900;stroke:#ff4900;stroke-width:2.80310011;stroke-linecap:round;stroke-linejoin:round" />
<circle
   cx="187.931"
   cy="194.097"
   r="2.691"
   transform="translate(4.0582304,53.771553)"
   id="circle312_4_"
   style="fill:#ff4900;stroke:#ff4900;stroke-width:2.80310011;stroke-linecap:round;stroke-linejoin:round" />
<circle
   cx="215.504"
   cy="175.25101"
   r="2.691"
   transform="translate(4.0582304,53.771553)"
   id="circle312_11_"
   style="fill:#ff4900;stroke:#ff4900;stroke-width:2.80310011;stroke-linecap:round;stroke-linejoin:round" />
<circle
   cx="243.116"
   cy="156.302"
   r="2.691"
   transform="translate(4.0582304,53.771553)"
   id="circle312_12_"
   style="fill:#ff4900;stroke:#ff4900;stroke-width:2.80310011;stroke-linecap:round;stroke-linejoin:round" />
<circle
   cx="270.56201"
   cy="137.416"
   r="2.691"
   transform="translate(4.0582304,53.771553)"
   id="circle312_13_"
   style="fill:#ff4900;stroke:#ff4900;stroke-width:2.80310011;stroke-linecap:round;stroke-linejoin:round" />
<circle
   cx="298.082"
   cy="118.574"
   r="4.8010001"
   transform="translate(4.0582304,53.771553)"
   id="circle312"
   style="fill:#ffffff;stroke:#ff4900;stroke-width:3;stroke-linecap:round;stroke-linejoin:round" />
<circle
   cx="325.48199"
   cy="478.073"
   r="2.691"
   transform="translate(4.0582304,53.771553)"
   id="circle312_6_"
   style="fill:#ff4900;stroke:#ff4900;stroke-width:2.80310011;stroke-linecap:round;stroke-linejoin:round" />
<circle
   cx="353.06799"
   cy="459.172"
   r="2.691"
   transform="translate(4.0582304,53.771553)"
   id="circle312_7_"
   style="fill:#ff4900;stroke:#ff4900;stroke-width:2.80310011;stroke-linecap:round;stroke-linejoin:round" />
<circle
   cx="380.673"
   cy="421.20499"
   r="2.691"
   transform="translate(4.0582304,53.771553)"
   id="circle312_8_"
   style="fill:#ff4900;stroke:#ff4900;stroke-width:2.80310011;stroke-linecap:round;stroke-linejoin:round" />
<circle
   cx="408.12299"
   cy="345.64899"
   r="2.691"
   transform="translate(4.0582304,53.771553)"
   id="circle312_9_"
   style="fill:#ff4900;stroke:#ff4900;stroke-width:2.80310011;stroke-linecap:round;stroke-linejoin:round" />
<circle
   cx="435.681"
   cy="307.76099"
   r="2.691"
   transform="translate(4.0582304,53.771553)"
   id="circle312_10_"
   style="fill:#ff4900;stroke:#ff4900;stroke-width:2.80310011;stroke-linecap:round;stroke-linejoin:round" />
<linearGradient
   x1="315.68701"
   y1="933.92938"
   x2="508.51321"
   y2="933.92938"
   id="rect321_1_"
   gradientUnits="userSpaceOnUse"
   gradientTransform="translate(13.83513,-572.42765)">
<stop
   id="stop140"
   style="stop-color:#ffffff;stop-opacity:1"
   offset="0" />
<stop
   id="stop142"
   style="stop-color:#000000;stop-opacity:1"
   offset="0.5" />
<stop
   id="stop144"
   style="stop-color:#ffffff;stop-opacity:1"
   offset="1" />
</linearGradient>
<rect
   width="192.826"
   height="1"
   x="329.52222"
   y="361.00156"
   id="rect321"
   style="fill:url(#rect321_1_)" />
<linearGradient
   x1="81.7202"
   y1="820.3894"
   x2="274.54691"
   y2="820.3894"
   id="rect330_1_"
   gradientUnits="userSpaceOnUse"
   gradientTransform="translate(24.013672,-571.57944)">
<stop
   id="stop148"
   style="stop-color:#ffffff;stop-opacity:1"
   offset="0" />
<stop
   id="stop150"
   style="stop-color:#000000;stop-opacity:1"
   offset="0.5" />
<stop
   id="stop152"
   style="stop-color:#ffffff;stop-opacity:1"
   offset="1" />
</linearGradient>
<rect
   width="192.827"
   height="1"
   x="105.73377"
   y="248.30975"
   id="rect330"
   style="fill:url(#rect330_1_)" />
<rect
   style="opacity:0.55967078;fill:url(#linearGradient5319);fill-opacity:1;stroke:#000000;stroke-width:2.61320662;stroke-linejoin:round;stroke-miterlimit:4;stroke-opacity:1;stroke-dasharray:none"
   id="rect3103"
   width="85.179733"
   height="76.075996"
   x="64.247887"
   y="466.97134" /><text
   xml:space="preserve"
   style="font-size:24.29240227px;font-style:normal;font-weight:normal;line-height:125%;letter-spacing:0px;word-spacing:0px;fill:#000000;fill-opacity:1;stroke:none;font-family:Sans"
   x="197.93475"
   y="429.26294"
   id="text3873"
   sodipodi:linespacing="125%"
   transform="scale(0.85650325,1.1675379)"><tspan
     sodipodi:role="line"
     id="tspan3875"
     x="197.93475"
     y="429.26294">we are here</tspan></text>

</svg>